<svg version="1.2" xmlns="http://www.w3.org/2000/svg" viewBox="0 0 18 18" width="18" height="18">
	<title>google_logo-svg</title>
	<style>
		.s0 { fill: #4285f4 } 
		.s1 { fill: #34a853 } 
		.s2 { fill: #fbbc05 } 
		.s3 { fill: #ea4335 } 
		.s4 { fill: none } 
	</style>
	<g id="Google-Button">
		<g id="btn_google_light_normal">
			<g id="logo_googleg_48dp">
				<path id="Shape" fill-rule="evenodd" class="s0" d="m17.6 9.2q0-1-0.1-1.8h-8.5v3.4h4.8c-0.2 1.2-0.8 2.1-1.8 2.8v2.2h3c1.7-1.5 2.6-3.9 2.6-6.6z"/>
				<path id="Shape" fill-rule="evenodd" class="s1" d="m9 18c2.4 0 4.5-0.8 6-2.2l-3-2.2c-0.8 0.5-1.8 0.8-3 0.8-2.3 0-4.3-1.6-5-3.7h-3v2.3c1.4 3 4.5 5 8 5z"/>
				<path id="Shape" fill-rule="evenodd" class="s2" d="m4 10.7q-0.3-0.8-0.3-1.7 0-0.9 0.3-1.7v-2.3h-3c-0.7 1.2-1 2.5-1 4 0 1.5 0.3 2.8 1 4z"/>
				<path id="Shape" fill-rule="evenodd" class="s3" d="m9 3.6c1.3 0 2.5 0.4 3.4 1.3l2.6-2.6c-1.5-1.4-3.6-2.3-6-2.3-3.5 0-6.6 2-8 5l3 2.3c0.7-2.1 2.7-3.7 5-3.7z"/>
				<path id="Shape" class="s4" d="m0 0h18v18h-18z"/>
			</g>
			<g id="handles_square">
			</g>
		</g>
	</g>
</svg>